<svg id="Layer_1" data-name="Layer 1" xmlns="http://www.w3.org/2000/svg" viewBox="0 0 22 22"><defs><style>.cls-1c{fill:#34658d;}</style></defs><title>Video play icon copy</title><g id="Download"><path class="cls-1c" d="M20.38,14.75a.63.63,0,0,0-.62.63v4.38H2.25V15.38a.63.63,0,0,0-1.25,0v5a.63.63,0,0,0,.63.63H20.38a.63.63,0,0,0,.63-.62v-5A.63.63,0,0,0,20.38,14.75Z"/><path class="cls-1c" d="M10.54,15.82a.64.64,0,0,0,.89,0l4.37-4.31a.62.62,0,0,0,0-.88.63.63,0,0,0-.89,0l-3.3,3.25V1.63a.63.63,0,0,0-1.26,0V13.87l-3.3-3.25a.63.63,0,0,0-.89,0,.62.62,0,0,0,0,.88Z"/></g></svg>
