<?xml version="1.0" encoding="utf-8"?>
<!-- Generator: Adobe Illustrator 19.2.1, SVG Export Plug-In . SVG Version: 6.00 Build 0)  -->
<svg version="1.1" id="Layer_1" xmlns="http://www.w3.org/2000/svg" xmlns:xlink="http://www.w3.org/1999/xlink" x="0px" y="0px"
	 viewBox="0 0 22 22" style="enable-background:new 0 0 22 22;" xml:space="preserve">
<style type="text/css">
	.st0{fill:#8b93a2;}
</style>
<title>Linkedin icon white</title>
<path class="st0" d="M21,13.2v7.4h-4.3v-6.9c0-1.7-0.6-2.9-2.2-2.9c-1,0-1.9,0.6-2.2,1.6c-0.1,0.3-0.2,0.7-0.1,1v7.2H7.9
	c0,0,0.1-11.6,0-12.8h4.3v1.8l0,0l0,0l0,0c0.8-1.4,2.3-2.2,3.9-2.1C18.9,7.4,21,9.2,21,13.2z M3.4,1.4c-1.2,0-2.2,1-2.3,2.2
	c0,1.2,1,2.2,2.2,2.3l0,0c1.2,0.1,2.3-0.8,2.4-2c0.1-1.2-0.8-2.3-2-2.4C3.7,1.4,3.5,1.4,3.4,1.4L3.4,1.4z M1.2,20.6h4.3V7.7H1.2
	V20.6z"/>
</svg>
